<svg width="100" height="90" viewBox="0 0 100 90" fill="none" xmlns="http://www.w3.org/2000/svg">
<path d="M90 9.99988H74.15L67.95 3.24988C66.1 1.19988 63.4 -0.00012207 60.6 -0.00012207H39.4C36.6 -0.00012207 33.9 1.19988 32 3.24988L25.85 9.99988H10C4.5 9.99988 0 14.4999 0 19.9999V79.9999C0 85.4999 4.5 89.9999 10 89.9999H90C95.5 89.9999 100 85.4999 100 79.9999V19.9999C100 14.4999 95.5 9.99988 90 9.99988ZM50 74.9999C36.2 74.9999 25 63.7999 25 49.9999C25 36.1999 36.2 24.9999 50 24.9999C63.8 24.9999 75 36.1999 75 49.9999C75 63.7999 63.8 74.9999 50 74.9999Z" fill="#F5F7FA"/>
</svg>
