<svg width="113" height="50" viewBox="0 0 113 50" fill="none" xmlns="http://www.w3.org/2000/svg">
<path d="M44.646 19.1224C47.6224 17.5142 49.8356 14.5657 49.9882 11.0429C50.2553 5.14609 45.9434 0.85747 40.2959 0.129936C38.2734 -0.138103 36.0984 0.0916444 34.0759 0.0916444C29.8021 0.0916444 25.5665 0.0916444 21.2927 0.0916444C14.653 0.0916444 8.01338 0.0916444 1.41188 0.0916444C-0.419748 0.0916444 -0.419748 2.9252 1.41188 2.9252C14.1188 2.9252 26.7876 2.9252 39.4945 2.9252C48.3092 2.9252 49.683 14.9104 41.4025 17.361C40.9064 17.5142 40.334 17.5908 39.7998 17.6673C38.5405 17.5525 37.205 17.5908 35.9076 17.629C35.4115 17.5908 34.9536 17.5908 34.4957 17.5908C25.8718 17.5908 17.2097 17.5908 8.58577 17.5908C6.18175 17.5908 3.8159 17.5908 1.41188 17.5908C0.496067 17.5908 0.038159 18.3183 0.038159 19.0458C0.038159 19.7734 0.457908 20.5009 1.41188 20.5009C14.1188 20.5009 26.7876 20.5009 39.4945 20.5009C48.3092 20.5009 49.683 32.4861 41.4025 34.9367C39.3037 35.5494 36.5944 35.1664 34.4575 35.1664C25.8336 35.1664 17.1715 35.1664 8.54761 35.1664C6.14359 35.1664 3.77774 35.1664 1.37372 35.1664C-0.457907 35.1664 -0.457907 38 1.37372 38C14.0807 38 26.7494 38 39.4564 38C44.6078 38 49.683 33.9411 49.9119 28.5803C50.179 24.3683 48.004 20.9604 44.646 19.1224Z" fill="white"/>
<path d="M60.9409 0C55.2692 0 52 3.60759 52 9.91139V29.0886C52 35.3924 55.2692 39 60.9409 39C66.6915 39 70 35.3924 70 29.0886V9.91139C70 3.60759 66.6915 0 60.9409 0ZM60.9409 35.8861C56.4114 35.8861 55.4661 32.2785 55.4661 29.2405V9.75949C55.4661 6.72152 56.4114 3.11392 60.9409 3.11392C65.5886 3.11392 66.5339 6.72152 66.5339 9.75949V29.2405C66.5339 32.2785 65.5492 35.8861 60.9409 35.8861Z" fill="white"/>
<path d="M81.4442 0C76.0875 0 73 3.60759 73 9.91139V29.0886C73 35.3924 76.0875 39 81.4442 39C86.8753 39 90 35.3924 90 29.0886V9.91139C90 3.60759 86.8753 0 81.4442 0ZM81.4442 35.8861C77.1663 35.8861 76.2735 32.2785 76.2735 29.2405V9.75949C76.2735 6.72152 77.1663 3.11392 81.4442 3.11392C85.8337 3.11392 86.7265 6.72152 86.7265 9.75949V29.2405C86.7265 32.2785 85.7965 35.8861 81.4442 35.8861Z" fill="white"/>
<path d="M100.833 17.7384L112.324 0H108.547L96.499 18.5669V0H93V38H96.499V24.2914L98.6859 20.9395L109.262 38H113L100.833 17.7384Z" fill="white"/>
<path d="M7.10651 49.4667C7.12038 49.5236 7.12732 49.5662 7.12732 49.5947C7.12732 49.6871 7.09611 49.7618 7.03369 49.8187C6.97127 49.8756 6.89845 49.904 6.81523 49.904C6.74588 49.904 6.68346 49.8862 6.62798 49.8507C6.57943 49.808 6.54129 49.7547 6.51354 49.6907L5.73333 47.7387H2.35238L1.58256 49.6907C1.52708 49.8329 1.43345 49.904 1.30168 49.904C1.20459 49.904 1.13177 49.8791 1.08322 49.8293C1.03468 49.7796 1.00694 49.712 1 49.6267V49.5947C1 49.552 1.00347 49.52 1.0104 49.4987L3.75677 42.608C3.81225 42.4658 3.91628 42.3947 4.06886 42.3947C4.13821 42.3947 4.19716 42.416 4.24571 42.4587C4.30119 42.4942 4.3428 42.544 4.37054 42.608L7.10651 49.4667ZM2.59165 47.1093H5.48366L4.02725 43.4613L2.59165 47.1093Z" fill="white"/>
<path d="M9.98251 49.5733C9.98251 49.6658 9.9513 49.744 9.88888 49.808C9.8334 49.8649 9.76058 49.8933 9.67042 49.8933C9.58026 49.8933 9.50398 49.8649 9.44156 49.808C9.38608 49.744 9.35834 49.6658 9.35834 49.5733V42.32C9.35834 42.2276 9.38608 42.1529 9.44156 42.096C9.50398 42.032 9.58026 42 9.67042 42C9.76058 42 9.8334 42.032 9.88888 42.096C9.9513 42.1529 9.98251 42.2276 9.98251 42.32V49.5733Z" fill="white"/>
<path d="M13.4203 49.5733C13.4203 49.6658 13.3891 49.744 13.3267 49.808C13.2712 49.8649 13.1984 49.8933 13.1083 49.8933C13.0181 49.8933 12.9418 49.8649 12.8794 49.808C12.8239 49.744 12.7962 49.6658 12.7962 49.5733V42.32C12.7962 42.2276 12.8239 42.1529 12.8794 42.096C12.9418 42.032 13.0181 42 13.1083 42C13.1984 42 13.2712 42.032 13.3267 42.096C13.3891 42.1529 13.4203 42.2276 13.4203 42.32V49.5733Z" fill="white"/>
<path d="M25.6428 49.4667C25.6567 49.5236 25.6636 49.5662 25.6636 49.5947C25.6636 49.6871 25.6324 49.7618 25.57 49.8187C25.5076 49.8756 25.4347 49.904 25.3515 49.904C25.2822 49.904 25.2197 49.8862 25.1643 49.8507C25.1157 49.808 25.0776 49.7547 25.0498 49.6907L24.2696 47.7387H20.8887L20.1189 49.6907C20.0634 49.8329 19.9697 49.904 19.838 49.904C19.7409 49.904 19.6681 49.8791 19.6195 49.8293C19.571 49.7796 19.5432 49.712 19.5363 49.6267V49.5947C19.5363 49.552 19.5398 49.52 19.5467 49.4987L22.2931 42.608C22.3485 42.4658 22.4526 42.3947 22.6051 42.3947C22.6745 42.3947 22.7334 42.416 22.782 42.4587C22.8375 42.4942 22.8791 42.544 22.9068 42.608L25.6428 49.4667ZM21.1279 47.1093H24.0199L22.5635 43.4613L21.1279 47.1093Z" fill="white"/>
<path d="M30.3601 44.3147C30.8178 44.3147 31.234 44.4356 31.6085 44.6773C31.983 44.9191 32.2743 45.2569 32.4823 45.6907C32.6973 46.1173 32.8048 46.6009 32.8048 47.1413C32.8048 47.6747 32.6973 48.1618 32.4823 48.6027C32.2743 49.0364 31.983 49.3778 31.6085 49.6267C31.2409 49.8756 30.8282 50 30.3705 50C29.9752 50 29.6076 49.9004 29.2678 49.7013C28.9349 49.4951 28.6644 49.2249 28.4564 48.8907V49.5947C28.4564 49.6871 28.4252 49.7653 28.3628 49.8293C28.3073 49.8933 28.2345 49.9253 28.1443 49.9253C28.0541 49.9253 27.9778 49.8933 27.9154 49.8293C27.8599 49.7653 27.8322 49.6871 27.8322 49.5947V42.3307C27.8322 42.2382 27.8599 42.1636 27.9154 42.1067C27.9778 42.0427 28.0541 42.0107 28.1443 42.0107C28.2345 42.0107 28.3073 42.0427 28.3628 42.1067C28.4252 42.1636 28.4564 42.2382 28.4564 42.3307V45.4773C28.6436 45.1289 28.9072 44.848 29.247 44.6347C29.5868 44.4213 29.9579 44.3147 30.3601 44.3147ZM30.3081 49.4027C30.6687 49.4027 30.9912 49.3031 31.2756 49.104C31.5669 48.9049 31.7922 48.6347 31.9518 48.2933C32.1182 47.9449 32.2014 47.5609 32.2014 47.1413C32.2014 46.7147 32.1182 46.3342 31.9518 46C31.7922 45.6587 31.5669 45.392 31.2756 45.2C30.9912 45.008 30.6687 44.912 30.3081 44.912C29.9405 44.912 29.6111 45.008 29.3198 45.2C29.0285 45.3849 28.8031 45.648 28.6436 45.9893C28.4841 46.3307 28.4044 46.7147 28.4044 47.1413C28.4044 47.568 28.4841 47.9556 28.6436 48.304C28.8101 48.6453 29.0355 48.9156 29.3198 49.1147C29.6111 49.3067 29.9405 49.4027 30.3081 49.4027Z" fill="white"/>
<path d="M40.0407 47.1627C40.0407 47.696 39.9262 48.1796 39.6974 48.6133C39.4685 49.0471 39.153 49.3884 38.7507 49.6373C38.3485 49.8791 37.9011 50 37.4087 50C36.9163 50 36.469 49.8791 36.0668 49.6373C35.6645 49.3884 35.349 49.0471 35.1201 48.6133C34.8912 48.1796 34.7768 47.696 34.7768 47.1627C34.7768 46.6293 34.8912 46.1458 35.1201 45.712C35.349 45.2782 35.6645 44.9369 36.0668 44.688C36.469 44.4391 36.9163 44.3147 37.4087 44.3147C37.9011 44.3147 38.3485 44.4391 38.7507 44.688C39.153 44.9369 39.4685 45.2782 39.6974 45.712C39.9262 46.1458 40.0407 46.6293 40.0407 47.1627ZM39.4165 47.1627C39.4165 46.736 39.3298 46.352 39.1564 46.0107C38.983 45.6693 38.7403 45.4027 38.4282 45.2107C38.1231 45.0116 37.7832 44.912 37.4087 44.912C37.0342 44.912 36.6944 45.0116 36.3893 45.2107C36.0841 45.4027 35.8414 45.6693 35.661 46.0107C35.4877 46.352 35.401 46.736 35.401 47.1627C35.401 47.5822 35.4877 47.9627 35.661 48.304C35.8414 48.6453 36.0841 48.9156 36.3893 49.1147C36.6944 49.3067 37.0342 49.4027 37.4087 49.4027C37.7832 49.4027 38.1231 49.3067 38.4282 49.1147C38.7403 48.9227 38.983 48.656 39.1564 48.3147C39.3298 47.9733 39.4165 47.5893 39.4165 47.1627Z" fill="white"/>
<path d="M46.3316 44.4747C46.4218 44.4747 46.4946 44.5067 46.5501 44.5707C46.6125 44.6276 46.6437 44.7022 46.6437 44.7947V47.8027C46.6437 48.4996 46.453 49.0364 46.0715 49.4133C45.6901 49.7831 45.163 49.968 44.4903 49.968C43.8245 49.968 43.3009 49.7831 42.9194 49.4133C42.5449 49.0364 42.3577 48.4996 42.3577 47.8027V44.7947C42.3577 44.7022 42.3854 44.6276 42.4409 44.5707C42.5033 44.5067 42.5796 44.4747 42.6698 44.4747C42.7599 44.4747 42.8327 44.5067 42.8882 44.5707C42.9506 44.6276 42.9819 44.7022 42.9819 44.7947V47.8027C42.9819 48.3147 43.1136 48.7058 43.3772 48.976C43.6407 49.2391 44.0117 49.3707 44.4903 49.3707C44.9757 49.3707 45.3503 49.2391 45.6138 48.976C45.8843 48.7058 46.0195 48.3147 46.0195 47.8027V44.7947C46.0195 44.7022 46.0472 44.6276 46.1027 44.5707C46.1651 44.5067 46.2414 44.4747 46.3316 44.4747Z" fill="white"/>
<path d="M50.361 45.0613V48.6347C50.361 48.9049 50.4096 49.0898 50.5067 49.1893C50.6038 49.2818 50.7321 49.328 50.8916 49.328C50.9332 49.328 50.9852 49.3209 51.0476 49.3067C51.11 49.2853 51.1586 49.2747 51.1932 49.2747C51.2557 49.2747 51.3077 49.3031 51.3493 49.36C51.3978 49.4098 51.4221 49.4702 51.4221 49.5413C51.4221 49.6409 51.3666 49.7262 51.2557 49.7973C51.1447 49.8613 51.0129 49.8933 50.8604 49.8933C50.6731 49.8933 50.5067 49.8756 50.361 49.84C50.2154 49.8044 50.0732 49.6978 49.9345 49.52C49.8027 49.3422 49.7368 49.0578 49.7368 48.6667V45.0613H48.9774C48.8942 45.0613 48.8214 45.0329 48.759 44.976C48.7035 44.9191 48.6757 44.848 48.6757 44.7627C48.6757 44.6773 48.7035 44.6062 48.759 44.5493C48.8214 44.4924 48.8942 44.464 48.9774 44.464H49.7368V43.28C49.7368 43.1876 49.7646 43.1129 49.8201 43.056C49.8825 42.992 49.9588 42.96 50.0489 42.96C50.1391 42.96 50.2119 42.992 50.2674 43.056C50.3298 43.1129 50.361 43.1876 50.361 43.28V44.464H51.4013C51.4776 44.464 51.5435 44.496 51.599 44.56C51.6614 44.624 51.6926 44.6951 51.6926 44.7733C51.6926 44.8587 51.6648 44.9298 51.6094 44.9867C51.5539 45.0364 51.4845 45.0613 51.4013 45.0613H50.361Z" fill="white"/>
<path d="M61.953 49.264C62.0432 49.264 62.116 49.2924 62.1715 49.3493C62.2339 49.4062 62.2651 49.4809 62.2651 49.5733C62.2651 49.6658 62.2339 49.744 62.1715 49.808C62.116 49.8649 62.0432 49.8933 61.953 49.8933H58.2392C58.149 49.8933 58.0727 49.8649 58.0103 49.808C57.9548 49.744 57.9271 49.6658 57.9271 49.5733V42.7467C57.9271 42.6542 57.9583 42.5796 58.0207 42.5227C58.0831 42.4587 58.1629 42.4267 58.26 42.4267C58.3502 42.4267 58.4264 42.4587 58.4889 42.5227C58.5513 42.5796 58.5825 42.6542 58.5825 42.7467V49.264H61.953Z" fill="white"/>
<path d="M64.9514 49.5733C64.9514 49.6658 64.9202 49.744 64.8578 49.808C64.8023 49.8649 64.7295 49.8933 64.6393 49.8933C64.5492 49.8933 64.4729 49.8649 64.4105 49.808C64.355 49.744 64.3273 49.6658 64.3273 49.5733V44.6667C64.3273 44.5742 64.355 44.4996 64.4105 44.4427C64.4729 44.3787 64.5492 44.3467 64.6393 44.3467C64.7295 44.3467 64.8023 44.3787 64.8578 44.4427C64.9202 44.4996 64.9514 44.5742 64.9514 44.6667V49.5733ZM64.6393 43.632C64.5006 43.632 64.3931 43.6 64.3168 43.536C64.2406 43.4649 64.2024 43.3653 64.2024 43.2373V43.1307C64.2024 43.0027 64.2406 42.9067 64.3168 42.8427C64.4001 42.7716 64.511 42.736 64.6497 42.736C64.9272 42.736 65.0659 42.8676 65.0659 43.1307V43.2373C65.0659 43.3653 65.0277 43.4649 64.9514 43.536C64.8821 43.6 64.778 43.632 64.6393 43.632Z" fill="white"/>
<path d="M68.6535 45.0613V48.6347C68.6535 48.9049 68.702 49.0898 68.7991 49.1893C68.8962 49.2818 69.0245 49.328 69.184 49.328C69.2256 49.328 69.2777 49.3209 69.3401 49.3067C69.4025 49.2853 69.451 49.2747 69.4857 49.2747C69.5481 49.2747 69.6002 49.3031 69.6418 49.36C69.6903 49.4098 69.7146 49.4702 69.7146 49.5413C69.7146 49.6409 69.6591 49.7262 69.5481 49.7973C69.4372 49.8613 69.3054 49.8933 69.1528 49.8933C68.9656 49.8933 68.7991 49.8756 68.6535 49.84C68.5078 49.8044 68.3657 49.6978 68.227 49.52C68.0952 49.3422 68.0293 49.0578 68.0293 48.6667V45.0613H67.2699C67.1867 45.0613 67.1139 45.0329 67.0514 44.976C66.996 44.9191 66.9682 44.848 66.9682 44.7627C66.9682 44.6773 66.996 44.6062 67.0514 44.5493C67.1139 44.4924 67.1867 44.464 67.2699 44.464H68.0293V43.28C68.0293 43.1876 68.0571 43.1129 68.1125 43.056C68.175 42.992 68.2512 42.96 68.3414 42.96C68.4316 42.96 68.5044 42.992 68.5599 43.056C68.6223 43.1129 68.6535 43.1876 68.6535 43.28V44.464H69.6938C69.7701 44.464 69.836 44.496 69.8914 44.56C69.9538 44.624 69.9851 44.6951 69.9851 44.7733C69.9851 44.8587 69.9573 44.9298 69.9018 44.9867C69.8464 45.0364 69.777 45.0613 69.6938 45.0613H68.6535Z" fill="white"/>
<path d="M76.622 46.8533C76.622 46.9387 76.5907 47.0133 76.5283 47.0773C76.4659 47.1342 76.3931 47.1627 76.3099 47.1627H72.3776C72.3776 47.5893 72.4608 47.9733 72.6272 48.3147C72.8006 48.6489 73.0434 48.9156 73.3554 49.1147C73.6745 49.3067 74.049 49.4027 74.479 49.4027C74.8118 49.4027 75.1101 49.3316 75.3736 49.1893C75.6371 49.0471 75.8487 48.8658 76.0082 48.6453C76.0845 48.5813 76.1573 48.5493 76.2266 48.5493C76.296 48.5493 76.3584 48.5778 76.4139 48.6347C76.4694 48.6916 76.4971 48.7556 76.4971 48.8267C76.4971 48.9049 76.4624 48.9796 76.3931 49.0507C76.1712 49.328 75.8903 49.5556 75.5505 49.7333C75.2176 49.9111 74.8639 50 74.4894 50C73.9553 50 73.4837 49.8827 73.0746 49.648C72.6654 49.4133 72.3464 49.0862 72.1175 48.6667C71.8886 48.24 71.7742 47.7493 71.7742 47.1947C71.7742 46.6116 71.8852 46.1031 72.1071 45.6693C72.336 45.2284 72.6376 44.8942 73.0121 44.6667C73.3867 44.432 73.7854 44.3147 74.2085 44.3147C74.6246 44.3147 75.013 44.4142 75.3736 44.6133C75.7412 44.8124 76.0394 45.104 76.2683 45.488C76.4971 45.872 76.615 46.3271 76.622 46.8533ZM74.2085 44.9333C73.8062 44.9333 73.4317 45.0756 73.085 45.36C72.7451 45.6444 72.5267 46.0533 72.4296 46.5867H75.977V46.5013C75.9423 46.1813 75.8383 45.904 75.6649 45.6693C75.4915 45.4276 75.273 45.2462 75.0095 45.1253C74.7529 44.9973 74.4859 44.9333 74.2085 44.9333Z" fill="white"/>
<path d="M81.435 44.3147C81.5737 44.3147 81.6985 44.3431 81.8095 44.4C81.9205 44.4569 81.976 44.5422 81.976 44.656C81.976 44.7556 81.9482 44.8373 81.8927 44.9013C81.8373 44.9582 81.7714 44.9867 81.6951 44.9867C81.6604 44.9867 81.5911 44.9689 81.487 44.9333C81.3899 44.8978 81.2963 44.88 81.2061 44.88C80.9495 44.88 80.6929 44.9831 80.4363 45.1893C80.1867 45.3884 79.9786 45.648 79.8122 45.968C79.6526 46.288 79.5729 46.6116 79.5729 46.9387V49.5733C79.5729 49.6658 79.5417 49.744 79.4793 49.808C79.4238 49.8649 79.351 49.8933 79.2608 49.8933C79.1706 49.8933 79.0944 49.8649 79.0319 49.808C78.9765 49.744 78.9487 49.6658 78.9487 49.5733V44.7947C78.9487 44.7022 78.9765 44.6276 79.0319 44.5707C79.0944 44.5067 79.1706 44.4747 79.2608 44.4747C79.351 44.4747 79.4238 44.5067 79.4793 44.5707C79.5417 44.6276 79.5729 44.7022 79.5729 44.7947V45.7333C79.7324 45.328 79.9717 44.9938 80.2907 44.7307C80.6166 44.4604 80.9981 44.3218 81.435 44.3147Z" fill="white"/>
<path d="M88.187 44.4427C88.2771 44.4427 88.35 44.4747 88.4054 44.5387C88.4679 44.6027 88.4991 44.6809 88.4991 44.7733V49.5733C88.4991 49.6658 88.4679 49.744 88.4054 49.808C88.35 49.8649 88.2771 49.8933 88.187 49.8933C88.0968 49.8933 88.0205 49.8649 87.9581 49.808C87.9026 49.744 87.8749 49.6658 87.8749 49.5733V48.8587C87.7015 49.1787 87.4414 49.4489 87.0947 49.6693C86.7479 49.8898 86.3699 50 85.9608 50C85.4961 50 85.0765 49.8756 84.702 49.6267C84.3344 49.3778 84.0432 49.0364 83.8282 48.6027C83.6201 48.1689 83.5161 47.6818 83.5161 47.1413C83.5161 46.6009 83.6236 46.1173 83.8386 45.6907C84.0536 45.2569 84.3448 44.9191 84.7124 44.6773C85.0869 44.4356 85.4996 44.3147 85.9504 44.3147C86.3665 44.3147 86.7479 44.4178 87.0947 44.624C87.4414 44.8302 87.7015 45.1004 87.8749 45.4347V44.7733C87.8749 44.6809 87.9026 44.6027 87.9581 44.5387C88.0205 44.4747 88.0968 44.4427 88.187 44.4427ZM86.0232 49.4027C86.3838 49.4027 86.7063 49.3067 86.9907 49.1147C87.2819 48.9156 87.5073 48.6453 87.6668 48.304C87.8333 47.9556 87.9165 47.568 87.9165 47.1413C87.9165 46.7289 87.8333 46.352 87.6668 46.0107C87.5073 45.6693 87.2819 45.4027 86.9907 45.2107C86.7063 45.0116 86.3838 44.912 86.0232 44.912C85.6626 44.912 85.3366 45.008 85.0453 45.2C84.761 45.392 84.5356 45.6587 84.3691 46C84.2096 46.3342 84.1299 46.7147 84.1299 47.1413C84.1299 47.568 84.2096 47.9556 84.3691 48.304C84.5286 48.6453 84.7506 48.9156 85.0349 49.1147C85.3262 49.3067 85.6556 49.4027 86.0232 49.4027Z" fill="white"/>
<path d="M92.2084 45.0613V48.6347C92.2084 48.9049 92.2569 49.0898 92.354 49.1893C92.4511 49.2818 92.5794 49.328 92.7389 49.328C92.7805 49.328 92.8325 49.3209 92.895 49.3067C92.9574 49.2853 93.0059 49.2747 93.0406 49.2747C93.103 49.2747 93.155 49.3031 93.1966 49.36C93.2452 49.4098 93.2695 49.4702 93.2695 49.5413C93.2695 49.6409 93.214 49.7262 93.103 49.7973C92.9921 49.8613 92.8603 49.8933 92.7077 49.8933C92.5205 49.8933 92.354 49.8756 92.2084 49.84C92.0627 49.8044 91.9206 49.6978 91.7818 49.52C91.6501 49.3422 91.5842 49.0578 91.5842 48.6667V45.0613H90.8248C90.7416 45.0613 90.6687 45.0329 90.6063 44.976C90.5508 44.9191 90.5231 44.848 90.5231 44.7627C90.5231 44.6773 90.5508 44.6062 90.6063 44.5493C90.6687 44.4924 90.7416 44.464 90.8248 44.464H91.5842V43.28C91.5842 43.1876 91.6119 43.1129 91.6674 43.056C91.7298 42.992 91.8061 42.96 91.8963 42.96C91.9864 42.96 92.0593 42.992 92.1147 43.056C92.1772 43.1129 92.2084 43.1876 92.2084 43.28V44.464H93.2487C93.3249 44.464 93.3908 44.496 93.4463 44.56C93.5087 44.624 93.5399 44.6951 93.5399 44.7733C93.5399 44.8587 93.5122 44.9298 93.4567 44.9867C93.4012 45.0364 93.3319 45.0613 93.2487 45.0613H92.2084Z" fill="white"/>
<path d="M99.7075 44.4747C99.7976 44.4747 99.8705 44.5067 99.926 44.5707C99.9884 44.6276 100.02 44.7022 100.02 44.7947V47.8027C100.02 48.4996 99.8289 49.0364 99.4474 49.4133C99.066 49.7831 98.5389 49.968 97.8662 49.968C97.2004 49.968 96.6768 49.7831 96.2953 49.4133C95.9208 49.0364 95.7336 48.4996 95.7336 47.8027V44.7947C95.7336 44.7022 95.7613 44.6276 95.8168 44.5707C95.8792 44.5067 95.9555 44.4747 96.0457 44.4747C96.1358 44.4747 96.2086 44.5067 96.2641 44.5707C96.3265 44.6276 96.3577 44.7022 96.3577 44.7947V47.8027C96.3577 48.3147 96.4895 48.7058 96.7531 48.976C97.0166 49.2391 97.3876 49.3707 97.8662 49.3707C98.3516 49.3707 98.7261 49.2391 98.9897 48.976C99.2602 48.7058 99.3954 48.3147 99.3954 47.8027V44.7947C99.3954 44.7022 99.4231 44.6276 99.4786 44.5707C99.541 44.5067 99.6173 44.4747 99.7075 44.4747Z" fill="white"/>
<path d="M105.183 44.3147C105.322 44.3147 105.446 44.3431 105.557 44.4C105.668 44.4569 105.724 44.5422 105.724 44.656C105.724 44.7556 105.696 44.8373 105.641 44.9013C105.585 44.9582 105.519 44.9867 105.443 44.9867C105.408 44.9867 105.339 44.9689 105.235 44.9333C105.138 44.8978 105.044 44.88 104.954 44.88C104.697 44.88 104.441 44.9831 104.184 45.1893C103.935 45.3884 103.727 45.648 103.56 45.968C103.401 46.288 103.321 46.6116 103.321 46.9387V49.5733C103.321 49.6658 103.29 49.744 103.227 49.808C103.172 49.8649 103.099 49.8933 103.009 49.8933C102.919 49.8933 102.842 49.8649 102.78 49.808C102.724 49.744 102.697 49.6658 102.697 49.5733V44.7947C102.697 44.7022 102.724 44.6276 102.78 44.5707C102.842 44.5067 102.919 44.4747 103.009 44.4747C103.099 44.4747 103.172 44.5067 103.227 44.5707C103.29 44.6276 103.321 44.7022 103.321 44.7947V45.7333C103.48 45.328 103.72 44.9938 104.039 44.7307C104.365 44.4604 104.746 44.3218 105.183 44.3147Z" fill="white"/>
<path d="M112 46.8533C112 46.9387 111.969 47.0133 111.906 47.0773C111.844 47.1342 111.771 47.1627 111.688 47.1627H107.756C107.756 47.5893 107.839 47.9733 108.005 48.3147C108.179 48.6489 108.421 48.9156 108.733 49.1147C109.052 49.3067 109.427 49.4027 109.857 49.4027C110.19 49.4027 110.488 49.3316 110.752 49.1893C111.015 49.0471 111.227 48.8658 111.386 48.6453C111.463 48.5813 111.535 48.5493 111.605 48.5493C111.674 48.5493 111.736 48.5778 111.792 48.6347C111.847 48.6916 111.875 48.7556 111.875 48.8267C111.875 48.9049 111.84 48.9796 111.771 49.0507C111.549 49.328 111.268 49.5556 110.928 49.7333C110.596 49.9111 110.242 50 109.867 50C109.333 50 108.862 49.8827 108.453 49.648C108.043 49.4133 107.724 49.0862 107.496 48.6667C107.267 48.24 107.152 47.7493 107.152 47.1947C107.152 46.6116 107.263 46.1031 107.485 45.6693C107.714 45.2284 108.016 44.8942 108.39 44.6667C108.765 44.432 109.163 44.3147 109.587 44.3147C110.003 44.3147 110.391 44.4142 110.752 44.6133C111.119 44.8124 111.417 45.104 111.646 45.488C111.875 45.872 111.993 46.3271 112 46.8533ZM109.587 44.9333C109.184 44.9333 108.81 45.0756 108.463 45.36C108.123 45.6444 107.905 46.0533 107.808 46.5867H111.355V46.5013C111.32 46.1813 111.216 45.904 111.043 45.6693C110.87 45.4276 110.651 45.2462 110.388 45.1253C110.131 44.9973 109.864 44.9333 109.587 44.9333Z" fill="white"/>
</svg>
